# xmcd
#
# Track frame offsets: 
#        150
#        13464
#        24259
#        41310
#        52496
#        71710
#        88753
#        106714
#        118298
#        132919
#        147636
#        167931
#        180967
#        193629
#        210986
#        225852
#
# Disc length: 3250 seconds
#
# Revision: 0
# Processed by: cddbd v1.5.2PL0 Copyright (c) Steve Scherf et al.
# Submitted via: ExactAudioCopy v0.99pb4
#
DISCID=e00cb010
DTITLE=Various Artist - Country Music Month 1992
DYEAR=1992
DGENRE=Country
TTITLE0=Marty Stuart - Burn Me Down
TTITLE1=Mark Chesnutt - Old Flames Have New Names
TTITLE2=Trisha Yearwood - The Woman Before Me
TTITLE3=George Jones - Honky Tonk Myself To Death
TTITLE4=Reba McEntire - The Night the Lights Went Out In Georgia
TTITLE5=The Mavericks - This Broken Heart
TTITLE6=Evangeline - Bayou Boy
TTITLE7=Vince Gill - Take Your Memory With You
TTITLE8=George Strait - Gone As a Girl Can Get
TTITLE9=Mark Collie - It Don't Take a Lot
TTITLE10=Lionel Cartwright - Be My Angel
TTITLE11=Marty Brown - Every Now and Then
TTITLE12=Tracy Byrd - That's the Thing About a Memory
TTITLE13=Wynonna - I Saw the Light
TTITLE14=Mac McAnally - The Trouble With Diamonds
TTITLE15=McBride and The Ride - Going Out of Mind
EXTD=
EXTT0=
EXTT1=
EXTT2=
EXTT3=
EXTT4=
EXTT5=
EXTT6=
EXTT7=
EXTT8=
EXTT9=
EXTT10=
EXTT11=
EXTT12=
EXTT13=
EXTT14=
EXTT15=
PLAYORDER=
